<?xml version="1.0" encoding="utf-8"?>
<!-- Generator: Adobe Illustrator 21.0.0, SVG Export Plug-In . SVG Version: 6.00 Build 0)  -->
<svg version="1.0" id="Layer_1" xmlns="http://www.w3.org/2000/svg" xmlns:xlink="http://www.w3.org/1999/xlink" x="0px" y="0px"
	 viewBox="0 0 303 58.4" style="enable-background:new 0 0 303 58.4;" xml:space="preserve">
<style type="text/css">
	.st0{fill:#FFFFFF;}
</style>
<path class="st0" d="M27.1,18.7H20v-1.6c0-1.6-0.4-3-1.1-4.2c-0.8-1.2-2-1.8-3.9-1.8c-1,0-1.8,0.2-2.4,0.6c-0.6,0.4-1.1,0.8-1.5,1.4
	c-0.3,0.6-0.6,1.3-0.7,2c-0.1,0.8-0.2,1.6-0.2,2.4c0,1,0,1.8,0.1,2.5c0.1,0.7,0.2,1.3,0.5,1.7c0.3,0.5,0.7,0.9,1.2,1.3
	c0.5,0.4,1.3,0.7,2.2,1.1l5.4,2.2c1.6,0.6,2.8,1.3,3.8,2.1c1,0.8,1.7,1.8,2.3,2.8c0.5,1.1,0.9,2.3,1.1,3.8c0.2,1.4,0.3,3,0.3,4.8
	c0,2.1-0.2,4-0.6,5.8c-0.4,1.8-1.1,3.3-2,4.6c-1,1.3-2.2,2.3-3.8,3c-1.6,0.7-3.5,1.1-5.8,1.1c-1.7,0-3.3-0.3-4.8-0.9
	C8.6,52.8,7.3,52,6.2,51c-1.1-1-1.9-2.3-2.5-3.7c-0.6-1.4-0.9-3-0.9-4.7V40h7.1v2.2c0,1.3,0.4,2.5,1.1,3.5c0.8,1,2,1.6,3.9,1.6
	c1.2,0,2.1-0.2,2.8-0.5c0.7-0.3,1.2-0.8,1.5-1.5c0.3-0.6,0.6-1.4,0.7-2.3C19.9,42,20,41,20,39.9c0-1.3,0-2.4-0.1-3.2
	c-0.1-0.8-0.3-1.5-0.6-2c-0.3-0.5-0.7-0.9-1.3-1.2c-0.5-0.3-1.2-0.7-2.1-1l-5.1-2.1c-3.1-1.3-5.1-2.9-6.1-5c-1-2.1-1.6-4.6-1.6-7.7
	c0-1.8,0.3-3.6,0.8-5.3C4.4,10.7,5.1,9.2,6.1,8c1-1.2,2.3-2.2,3.8-2.9c1.5-0.7,3.3-1.1,5.3-1.1c1.8,0,3.4,0.3,4.8,1
	c1.5,0.6,2.7,1.5,3.8,2.6c1,1.1,1.8,2.3,2.4,3.6c0.6,1.3,0.8,2.7,0.8,4.1V18.7z"/>
<polygon class="st0" points="32.3,4.5 39.1,4.5 48.2,30.7 48.4,30.7 57.4,4.5 64.3,4.5 64.3,53.9 57.2,53.9 57.2,23.9 57.1,23.9 
	50,45.1 46.5,45.1 39.6,23.9 39.4,23.9 39.4,53.9 32.3,53.9 "/>
<path class="st0" d="M77.6,42.3c0,1.7,0.5,3,1.4,3.8c0.9,0.8,2.1,1.2,3.4,1.2c1.3,0,2.4-0.4,3.4-1.2c0.9-0.8,1.4-2.1,1.4-3.8V16.1
	c0-1.7-0.5-3-1.4-3.8c-0.9-0.8-2.1-1.2-3.4-1.2c-1.3,0-2.4,0.4-3.4,1.2c-0.9,0.8-1.4,2.1-1.4,3.8V42.3z M70.5,16.1
	c0-2,0.3-3.8,1-5.3c0.7-1.5,1.6-2.8,2.7-3.8c1.1-1,2.4-1.7,3.8-2.3c1.4-0.5,2.8-0.8,4.3-0.8s2.9,0.3,4.3,0.8
	c1.4,0.5,2.7,1.3,3.8,2.3c1.1,1,2,2.3,2.7,3.8c0.7,1.5,1,3.3,1,5.3v26.1c0,2-0.3,3.8-1,5.3c-0.7,1.5-1.6,2.8-2.7,3.8
	c-1.1,1-2.4,1.7-3.8,2.3c-1.4,0.5-2.8,0.8-4.3,0.8s-2.9-0.3-4.3-0.8c-1.4-0.5-2.7-1.3-3.8-2.3c-1.1-1-2-2.2-2.7-3.8
	c-0.7-1.5-1-3.3-1-5.3V16.1z"/>
<path class="st0" d="M107.2,42.3c0,1.7,0.5,3,1.4,3.8c0.9,0.8,2.1,1.2,3.4,1.2c1.3,0,2.4-0.4,3.4-1.2c0.9-0.8,1.4-2.1,1.4-3.8V16.1
	c0-1.7-0.5-3-1.4-3.8c-0.9-0.8-2.1-1.2-3.4-1.2c-1.3,0-2.4,0.4-3.4,1.2c-0.9,0.8-1.4,2.1-1.4,3.8V42.3z M100.1,16.1
	c0-2,0.3-3.8,1-5.3c0.7-1.5,1.6-2.8,2.7-3.8c1.1-1,2.4-1.7,3.8-2.3c1.4-0.5,2.8-0.8,4.3-0.8s2.9,0.3,4.3,0.8
	c1.4,0.5,2.7,1.3,3.8,2.3c1.1,1,2,2.3,2.7,3.8c0.7,1.5,1,3.3,1,5.3v26.1c0,2-0.3,3.8-1,5.3c-0.7,1.5-1.6,2.8-2.7,3.8
	c-1.1,1-2.4,1.7-3.8,2.3c-1.4,0.5-2.8,0.8-4.3,0.8s-2.9-0.3-4.3-0.8c-1.4-0.5-2.7-1.3-3.8-2.3c-1.1-1-2-2.2-2.7-3.8
	c-0.7-1.5-1-3.3-1-5.3V16.1z"/>
<polygon class="st0" points="142.8,53.9 136.5,53.9 126.5,4.5 134,4.5 139.6,39 139.7,39 145.4,4.5 152.9,4.5 "/>
<polygon class="st0" points="157.2,4.5 178.3,4.5 178.3,11.1 164.2,11.1 164.2,25.7 176.5,25.7 176.5,32.3 164.2,32.3 164.2,46.8 
	178.3,46.8 178.3,53.9 157.2,53.9 "/>
<polygon class="st0" points="183.5,4.5 190.3,4.5 199.4,30.7 199.6,30.7 208.6,4.5 215.5,4.5 215.5,53.9 208.4,53.9 208.4,23.9 
	208.2,23.9 201.2,45.1 197.7,45.1 190.7,23.9 190.6,23.9 190.6,53.9 183.5,53.9 "/>
<g>
	<path class="st0" d="M228.8,42.3c0,1.7,0.5,3,1.4,3.8c0.9,0.8,2.1,1.2,3.4,1.2c1.3,0,2.4-0.4,3.4-1.2c0.9-0.8,1.4-2.1,1.4-3.8V16.1
		c0-1.7-0.5-3-1.4-3.8c-0.9-0.8-2.1-1.2-3.4-1.2c-1.3,0-2.4,0.4-3.4,1.2c-1,0.8-1.4,2.1-1.4,3.8V42.3z M221.7,16.1
		c0-2,0.3-3.8,1-5.3c0.7-1.5,1.6-2.8,2.7-3.8c1.1-1,2.4-1.7,3.8-2.3c1.4-0.5,2.8-0.8,4.3-0.8c1.4,0,2.9,0.3,4.3,0.8
		c1.4,0.5,2.7,1.3,3.8,2.3c1.1,1,2,2.3,2.7,3.8c0.7,1.5,1,3.3,1,5.3v26.1c0,2-0.3,3.8-1,5.3c-0.7,1.5-1.6,2.8-2.7,3.8
		c-1.1,1-2.4,1.7-3.8,2.3c-1.4,0.5-2.8,0.8-4.3,0.8c-1.4,0-2.9-0.3-4.3-0.8c-1.4-0.5-2.7-1.3-3.8-2.3c-1.1-1-2-2.2-2.7-3.8
		c-0.7-1.5-1-3.3-1-5.3V16.1z"/>
</g>
<polygon class="st0" points="264.4,53.9 258.1,53.9 248,4.5 255.5,4.5 261.2,39 261.3,39 267,4.5 274.5,4.5 "/>
<polygon class="st0" points="278.7,4.5 299.9,4.5 299.9,11.1 285.8,11.1 285.8,25.7 298.1,25.7 298.1,32.3 285.8,32.3 285.8,46.8 
	299.9,46.8 299.9,53.9 278.7,53.9 "/>
</svg>
