<?xml version="1.0" encoding="utf-8"?>
<!-- Generator: Adobe Illustrator 21.0.0, SVG Export Plug-In . SVG Version: 6.00 Build 0)  -->
<svg version="1.0" id="Layer_1" xmlns="http://www.w3.org/2000/svg" xmlns:xlink="http://www.w3.org/1999/xlink" x="0px" y="0px"
	 viewBox="0 0 90 90" style="enable-background:new 0 0 90 90;" xml:space="preserve">
<style type="text/css">
	.st0{clip-path:url(#SVGID_2_);fill:#005832;}
	.st1{clip-path:url(#SVGID_2_);fill:#FFFFFF;}
	.st2{fill:#FFFFFF;}
	.st3{clip-path:url(#SVGID_4_);fill:#FFFFFF;}
</style>
<g>
	<g>
		<defs>
			<rect id="SVGID_1_" x="2.7" y="3.6" width="83.4" height="83.4"/>
		</defs>
		<clipPath id="SVGID_2_">
			<use xlink:href="#SVGID_1_"  style="overflow:visible;"/>
		</clipPath>
		<path class="st0" d="M81.3,86.9H7.6c-2.7,0-4.9-2.2-4.9-4.9V8.4c0-2.7,2.2-4.9,4.9-4.9h73.6c2.7,0,4.9,2.2,4.9,4.9v73.6
			C86.1,84.7,83.9,86.9,81.3,86.9"/>
		<path class="st1" d="M18.8,29.5H16v-0.6c0-0.7-0.2-1.2-0.5-1.7c-0.3-0.5-0.8-0.7-1.6-0.7c-0.4,0-0.7,0.1-1,0.2
			c-0.3,0.2-0.4,0.3-0.6,0.6c-0.1,0.2-0.2,0.5-0.3,0.8c-0.1,0.3-0.1,0.6-0.1,1c0,0.4,0,0.7,0,1c0,0.3,0.1,0.5,0.2,0.7
			c0.1,0.2,0.3,0.4,0.5,0.5c0.2,0.1,0.5,0.3,0.9,0.4l2.2,0.9c0.6,0.2,1.1,0.5,1.5,0.9c0.4,0.3,0.7,0.7,0.9,1.1
			c0.2,0.4,0.4,0.9,0.4,1.5c0.1,0.6,0.1,1.2,0.1,1.9c0,0.8-0.1,1.6-0.3,2.3c-0.2,0.7-0.4,1.3-0.8,1.8c-0.4,0.5-0.9,0.9-1.5,1.2
			c-0.6,0.3-1.4,0.4-2.3,0.4c-0.7,0-1.3-0.1-1.9-0.4c-0.6-0.2-1.1-0.6-1.5-1c-0.4-0.4-0.8-0.9-1-1.5C9.2,40.4,9,39.8,9,39.1v-1.1
			h2.9V39c0,0.5,0.2,1,0.5,1.4c0.3,0.4,0.8,0.6,1.6,0.6c0.5,0,0.9-0.1,1.1-0.2c0.3-0.1,0.5-0.3,0.6-0.6c0.1-0.3,0.2-0.6,0.3-0.9
			c0-0.4,0.1-0.8,0.1-1.2c0-0.5,0-1-0.1-1.3c0-0.3-0.1-0.6-0.2-0.8c-0.1-0.2-0.3-0.4-0.5-0.5s-0.5-0.3-0.9-0.4l-2-0.8
			c-1.2-0.5-2.1-1.2-2.5-2c-0.4-0.8-0.6-1.9-0.6-3.1c0-0.7,0.1-1.5,0.3-2.1c0.2-0.7,0.5-1.3,0.9-1.7c0.4-0.5,0.9-0.9,1.5-1.2
			c0.6-0.3,1.3-0.4,2.2-0.4c0.7,0,1.4,0.1,1.9,0.4c0.6,0.3,1.1,0.6,1.5,1c0.4,0.4,0.7,0.9,1,1.4c0.2,0.5,0.3,1.1,0.3,1.6V29.5z"/>
	</g>
	<polygon class="st2" points="21,23.8 23.7,23.8 27.4,34.3 27.4,34.3 31.1,23.8 33.9,23.8 33.9,43.7 31,43.7 31,31.6 30.9,31.6 
		28.1,40.2 26.7,40.2 23.9,31.6 23.8,31.6 23.8,43.7 21,43.7 	"/>
	<g>
		<defs>
			<rect id="SVGID_3_" x="2.7" y="3.6" width="83.4" height="83.4"/>
		</defs>
		<clipPath id="SVGID_4_">
			<use xlink:href="#SVGID_3_"  style="overflow:visible;"/>
		</clipPath>
		<path class="st3" d="M39.2,39c0,0.7,0.2,1.2,0.6,1.5c0.4,0.3,0.8,0.5,1.4,0.5s1-0.2,1.4-0.5c0.4-0.3,0.6-0.8,0.6-1.5V28.5
			c0-0.7-0.2-1.2-0.6-1.5c-0.4-0.3-0.8-0.5-1.4-0.5s-1,0.2-1.4,0.5c-0.4,0.3-0.6,0.8-0.6,1.5V39z M36.4,28.5c0-0.8,0.1-1.5,0.4-2.1
			c0.3-0.6,0.6-1.1,1.1-1.5c0.5-0.4,1-0.7,1.5-0.9c0.6-0.2,1.1-0.3,1.7-0.3c0.6,0,1.2,0.1,1.7,0.3c0.6,0.2,1.1,0.5,1.5,0.9
			c0.5,0.4,0.8,0.9,1.1,1.5c0.3,0.6,0.4,1.3,0.4,2.1V39c0,0.8-0.1,1.5-0.4,2.1c-0.3,0.6-0.6,1.1-1.1,1.5c-0.5,0.4-1,0.7-1.5,0.9
			c-0.6,0.2-1.1,0.3-1.7,0.3c-0.6,0-1.2-0.1-1.7-0.3c-0.6-0.2-1.1-0.5-1.5-0.9c-0.5-0.4-0.8-0.9-1.1-1.5c-0.3-0.6-0.4-1.3-0.4-2.1
			V28.5z"/>
		<path class="st3" d="M51.2,39c0,0.7,0.2,1.2,0.6,1.5c0.4,0.3,0.8,0.5,1.4,0.5c0.5,0,1-0.2,1.4-0.5c0.4-0.3,0.6-0.8,0.6-1.5V28.5
			c0-0.7-0.2-1.2-0.6-1.5c-0.4-0.3-0.8-0.5-1.4-0.5c-0.5,0-1,0.2-1.4,0.5c-0.4,0.3-0.6,0.8-0.6,1.5V39z M48.3,28.5
			c0-0.8,0.1-1.5,0.4-2.1c0.3-0.6,0.6-1.1,1.1-1.5c0.5-0.4,1-0.7,1.5-0.9c0.6-0.2,1.1-0.3,1.7-0.3c0.6,0,1.2,0.1,1.7,0.3
			c0.6,0.2,1.1,0.5,1.5,0.9c0.5,0.4,0.8,0.9,1.1,1.5c0.3,0.6,0.4,1.3,0.4,2.1V39c0,0.8-0.1,1.5-0.4,2.1c-0.3,0.6-0.6,1.1-1.1,1.5
			c-0.5,0.4-1,0.7-1.5,0.9c-0.6,0.2-1.1,0.3-1.7,0.3c-0.6,0-1.2-0.1-1.7-0.3c-0.6-0.2-1.1-0.5-1.5-0.9c-0.5-0.4-0.8-0.9-1.1-1.5
			c-0.3-0.6-0.4-1.3-0.4-2.1V28.5z"/>
	</g>
	<polygon class="st2" points="65.5,43.7 63,43.7 58.9,23.8 62,23.8 64.2,37.7 64.3,37.7 66.6,23.8 69.6,23.8 	"/>
	<polygon class="st2" points="71.3,23.8 79.8,23.8 79.8,26.5 74.2,26.5 74.2,32.3 79.1,32.3 79.1,35 74.2,35 74.2,40.9 79.8,40.9 
		79.8,43.7 71.3,43.7 	"/>
	<polygon class="st2" points="21.1,46.8 23.9,46.8 27.5,57.3 27.6,57.3 31.2,46.8 34,46.8 34,66.7 31.2,66.7 31.2,54.6 31.1,54.6 
		28.3,63.2 26.8,63.2 24,54.6 24,54.6 24,66.7 21.1,66.7 	"/>
	<g>
		<path class="st2" d="M39.4,62c0,0.7,0.2,1.2,0.6,1.5c0.4,0.3,0.8,0.5,1.4,0.5c0.5,0,1-0.2,1.4-0.5c0.4-0.3,0.6-0.8,0.6-1.5V51.5
			c0-0.7-0.2-1.2-0.6-1.5c-0.4-0.3-0.8-0.5-1.4-0.5c-0.5,0-1,0.2-1.4,0.5c-0.4,0.3-0.6,0.8-0.6,1.5V62z M36.5,51.5
			c0-0.8,0.1-1.5,0.4-2.1c0.3-0.6,0.6-1.1,1.1-1.5c0.5-0.4,1-0.7,1.5-0.9c0.6-0.2,1.1-0.3,1.7-0.3c0.6,0,1.2,0.1,1.7,0.3
			s1.1,0.5,1.5,0.9c0.5,0.4,0.8,0.9,1.1,1.5c0.3,0.6,0.4,1.3,0.4,2.1V62c0,0.8-0.1,1.5-0.4,2.1c-0.3,0.6-0.6,1.1-1.1,1.5
			c-0.5,0.4-1,0.7-1.5,0.9c-0.6,0.2-1.1,0.3-1.7,0.3c-0.6,0-1.2-0.1-1.7-0.3c-0.6-0.2-1.1-0.5-1.5-0.9c-0.5-0.4-0.8-0.9-1.1-1.5
			c-0.3-0.6-0.4-1.3-0.4-2.1V51.5z"/>
	</g>
	<polygon class="st2" points="53.7,66.7 51.2,66.7 47.2,46.8 50.2,46.8 52.4,60.7 52.5,60.7 54.8,46.8 57.8,46.8 	"/>
	<polygon class="st2" points="59.5,46.8 68.1,46.8 68.1,49.5 62.4,49.5 62.4,55.3 67.3,55.3 67.3,58 62.4,58 62.4,63.9 68.1,63.9 
		68.1,66.7 59.5,66.7 	"/>
</g>
</svg>
